<svg fill="#000000" height="155px" width="155px" version="1.1" id="Layer_1" xmlns="http://www.w3.org/2000/svg" xmlns:xlink="http://www.w3.org/1999/xlink" viewBox="-215.04 -215.04 942.08 942.08" xml:space="preserve" transform="rotate(270)matrix(-1, 0, 0, 1, 0, 0)" stroke="#000000" stroke-width="9.216"><g id="SVGRepo_bgCarrier" stroke-width="0" transform="translate(0,0), scale(1)"><path transform="translate(-215.04, -215.04), scale(29.44)" d="M16,29.84883861243725C18.853937882971387,30.061845800400572,21.482327375782447,28.412354852635747,23.744427047964702,26.659289373226557C25.949073897507724,24.950748262615978,27.60722320526677,22.700995040591724,28.591085020926315,20.091091520242074C29.613850947972125,17.377986538419886,30.219161434405585,14.427293581379605,29.404553059508714,11.644596691766555C28.576173354758094,8.814857029293819,26.3700662525206,6.729014429897024,24.12122789270795,4.822088756450578C21.6959502854192,2.7655496039616585,19.173294127609026,0.4818547110113676,16.000000000000004,0.27806771972349686C12.740000933819289,0.06871259076833733,9.621151672369585,1.670418024650962,7.083839725855043,3.7279581986435755C4.641209081553255,5.7087200390551365,3.2017690834581307,8.535907030681301,2.1582368153573768,11.50253851071809C1.0905890368623752,14.537727365049523,-0.35702276821775647,17.965565047700288,1.059475554465413,20.854470664403408C2.454942108859092,23.700482623861944,6.336677757614552,23.927901324453725,9.052275459510806,25.562722445943216C11.442048478396174,27.001393352208684,13.21833040187389,29.64122525740409,16,29.84883861243725" fill="#8ff0a4" strokewidth="0"></path></g><g id="SVGRepo_tracerCarrier" stroke-linecap="round" stroke-linejoin="round"></g><g id="SVGRepo_iconCarrier"> <g> <g> <path d="M497.842,240.382l-10.779-74.686c-2.48-17.181-15.733-30.712-32.254-34.128V98.043l14.706-19.608 c2.707-3.609,1.975-8.731-1.634-11.438c-3.611-2.707-8.732-1.975-11.438,1.634l-9.804,13.072l-9.804-13.072 c-2.707-3.609-7.829-4.34-11.438-1.634c-3.609,2.707-4.341,7.829-1.634,11.438l14.706,19.608v33.526 c-16.521,3.415-29.773,16.946-32.254,34.129l-10.78,74.687c-0.358,2.486-0.54,4.991-0.54,7.446 c0,11.533,3.848,22.687,10.894,31.746v126.211c0,13.516-10.996,24.511-24.511,24.511c-13.515,0-24.511-10.995-24.511-24.511 V236.936c0-58.566-47.647-106.213-106.213-106.213c-58.566,0-106.213,47.647-106.213,106.213v168.851 c0,13.516-10.996,24.511-24.511,24.511c-13.515,0-24.511-10.995-24.511-24.511V236.936c0-85.597,69.637-155.234,155.234-155.234 c18.234,0,36.096,3.146,53.092,9.351c4.512,1.645,9.216,2.478,13.982,2.478c17.102,0,32.525-10.803,38.378-26.884 c7.7-21.159-3.248-44.651-24.404-52.369C305.65,4.804,278.382,0,250.553,0C119.906,0,13.617,106.289,13.617,236.936v168.851 C13.617,464.354,61.264,512,119.83,512c58.566,0,106.213-47.646,106.213-106.213V236.936c0-13.516,10.996-24.511,24.511-24.511 c13.515,0,24.511,10.995,24.511,24.511v168.851C275.064,464.354,322.71,512,381.277,512c58.566,0,106.213-47.646,106.213-106.213 V279.576c7.047-9.057,10.894-20.211,10.894-31.746C498.383,245.37,498.201,242.863,497.842,240.382z M314.513,25.805 c3.856,1.171,7.689,2.438,11.486,3.825c12.701,4.633,19.273,18.733,14.652,31.429c-3.512,9.65-12.765,16.132-23.024,16.132 c-2.851,0-5.672-0.501-8.38-1.488c-2.388-0.871-4.791-1.687-7.209-2.45L314.513,25.805z M258.723,16.501 c13.529,0.494,26.893,2.206,39.989,5.134L286.232,69.1c-9.03-1.918-18.217-3.105-27.509-3.542V16.501z M473.193,271.231 c-1.317,1.492-2.044,3.414-2.044,5.404v129.151c0,49.556-40.317,89.872-89.872,89.872s-89.872-40.316-89.872-89.872V236.936 c0-22.526-18.325-40.851-40.851-40.851s-40.851,18.325-40.851,40.851v168.851c0,49.556-40.317,89.872-89.872,89.872 c-49.555,0-89.872-40.316-89.872-89.872V236.936c0-118.901,94.56-216.114,212.426-220.429V65.56 c-9.385,0.442-18.574,1.645-27.51,3.543l-6.283-23.897c-1.148-4.364-5.617-6.97-9.98-5.824c-4.364,1.147-6.971,5.616-5.825,9.98 l6.283,23.895c-69.53,21.919-120.09,87.004-120.09,163.68v168.851c0,22.526,18.325,40.851,40.851,40.851 c22.526,0,40.851-18.325,40.851-40.851V236.936c0-49.556,40.317-89.872,89.872-89.872c49.555,0,89.872,40.316,89.872,89.872 v168.851c0,22.526,18.325,40.851,40.851,40.851s40.851-18.325,40.851-40.851V276.636c0-1.99-0.727-3.912-2.043-5.404 c-5.707-6.47-8.851-14.782-8.851-23.402c0-1.679,0.125-3.399,0.373-5.113l2.134-14.784h11.567c4.513,0,8.17-3.658,8.17-8.17 s-3.657-8.17-8.17-8.17h-9.208l6.288-43.56c1.726-11.954,12.152-20.968,24.251-20.968s22.526,9.014,24.252,20.967l6.287,43.56 h-9.208c-4.513,0-8.17,3.658-8.17,8.17s3.657,8.17,8.17,8.17h11.567l2.134,14.787c0.248,1.712,0.374,3.431,0.374,5.111 C482.043,256.451,478.9,264.762,473.193,271.231z"></path> </g> </g> <g> <g> <circle cx="54.468" cy="236.936" r="8.17"></circle> </g> </g> <g> <g> <circle cx="54.468" cy="269.617" r="8.17"></circle> </g> </g> <g> <g> <circle cx="185.192" cy="405.787" r="8.17"></circle> </g> </g> </g></svg>
